<svg xmlns="http://www.w3.org/2000/svg" width="64" height="64" fill="none"><rect width="64" height="64" fill="#008024" rx="15"/><path fill="#fff" d="M45.5 30.5h-5.91a1.17 1.17 0 0 0-.315 0h-.255a1.934 1.934 0 0 0-.225.15 2.502 2.502 0 0 0-.24.18c-.05.062-.095.127-.135.195a1.981 1.981 0 0 0-.18.3l-2.4 6.615-6.255-16.95a1.5 1.5 0 0 0-2.82 0L23.3 30.5h-4.8a1.5 1.5 0 1 0 0 3H24.95c.085-.04.166-.091.24-.15.083-.055.164-.115.24-.18l.135-.195c.072-.092.132-.193.18-.3l2.43-6.795 6.24 17.13a1.5 1.5 0 0 0 2.82 0l3.45-9.51H45.5a1.5 1.5 0 1 0 0-3Z"/></svg>